<svg xmlns="http://www.w3.org/2000/svg" width="16" height="15.996" viewBox="0 0 16 15.996"><defs><style>.a{fill:#233464;}</style></defs><path class="a" d="M7.927,35.722a4.1,4.1,0,1,0,4.1,4.1A4.095,4.095,0,0,0,7.927,35.722Zm0,6.768a2.666,2.666,0,1,1,2.666-2.666A2.671,2.671,0,0,1,7.927,42.49Zm5.226-6.935A.957.957,0,1,1,12.2,34.6.954.954,0,0,1,13.152,35.554Zm2.716.971a4.734,4.734,0,0,0-1.292-3.352,4.765,4.765,0,0,0-3.352-1.292c-1.321-.075-5.279-.075-6.6,0A4.758,4.758,0,0,0,1.273,33.17,4.75,4.75,0,0,0-.019,36.521c-.075,1.321-.075,5.279,0,6.6a4.734,4.734,0,0,0,1.292,3.352,4.771,4.771,0,0,0,3.352,1.292c1.321.075,5.279.075,6.6,0a4.734,4.734,0,0,0,3.352-1.292,4.765,4.765,0,0,0,1.292-3.352C15.944,41.8,15.944,37.846,15.869,36.525Zm-1.706,8.013a2.7,2.7,0,0,1-1.521,1.521c-1.053.418-3.552.321-4.715.321s-3.666.093-4.715-.321a2.7,2.7,0,0,1-1.521-1.521c-.418-1.053-.321-3.552-.321-4.715s-.093-3.666.321-4.715a2.7,2.7,0,0,1,1.521-1.521c1.053-.418,3.552-.321,4.715-.321s3.666-.093,4.715.321a2.7,2.7,0,0,1,1.521,1.521c.418,1.053.321,3.552.321,4.715S14.58,43.489,14.163,44.538Z" transform="translate(0.075 -31.825)"/></svg>